<svg width="100" height="100" viewBox="0 0 100 100" fill="none" xmlns="http://www.w3.org/2000/svg">
<path d="M64.3343 60.6631L57.9717 57H41.3633L35 60.6631C41.0876 71.2175 59.2816 88.5076 79 90C72.1303 86.1569 61.1948 72.3549 64.3343 60.6631Z" fill="#1C75BC"/>
<path d="M68.8119 5C68.9094 12.9035 62.557 29.3488 51.117 32.4981L51.1242 39.8636L51 39.6506L59.2346 54.3061L65.4404 58C71.4124 47.4043 77.1721 22.8885 68.8119 5Z" fill="#F8B323"/>
<path d="M0 56.0366C6.99051 52.0741 25.0016 49.5593 33.854 58L40.4208 54.3787L40.2895 54.5918L48.9939 40.2245L49 33C36.4007 32.9833 11.5175 39.9698 0 56.0366Z" fill="#72BF44"/>
<path d="M46 50.0004C46 47.7892 47.7879 46 50.0011 46C52.2075 46 54 47.7892 54 50.0004C54 52.2093 52.2075 54 50.0011 54C47.7879 54 46 52.2101 46 50.0004Z" fill="#1C75BC"/>
</svg>
