<svg width="19" height="18" viewBox="0 0 19 18" fill="none" xmlns="http://www.w3.org/2000/svg">
<path fill-rule="evenodd" clip-rule="evenodd" d="M9.5 18C14.4706 18 18.5 13.9706 18.5 9C18.5 4.02944 14.4706 0 9.5 0C4.52944 0 0.5 4.02944 0.5 9C0.5 13.9706 4.52944 18 9.5 18ZM4.5642 5.625H14.195C14.5383 5.625 14.8107 5.8654 14.8623 6.17494L9.3796 9.56826L3.89692 6.17494C3.94851 5.8654 4.22093 5.625 4.5642 5.625ZM3.875 6.93553V11.4358L7.58561 9.23221L3.875 6.93553ZM11.171 9.23221L14.8816 11.4358V6.93553L11.171 9.23221ZM10.5409 9.62247L9.56747 10.2248C9.50969 10.2603 9.44433 10.2777 9.3783 10.2777C9.31226 10.2777 9.2469 10.2603 9.18912 10.2248L8.21572 9.62183L3.89699 12.188C3.94996 12.4949 4.221 12.7334 4.56289 12.7334H14.1937C14.5356 12.7334 14.8066 12.4949 14.8596 12.188L10.5409 9.62247Z" fill="#F29C9C"/>
</svg>
