<svg width="18" height="18" viewBox="0 0 18 18" fill="none" xmlns="http://www.w3.org/2000/svg">
<path fill-rule="evenodd" clip-rule="evenodd" d="M9 18C13.9706 18 18 13.9706 18 9C18 4.02944 13.9706 0 9 0C4.02944 0 0 4.02944 0 9C0 13.9706 4.02944 18 9 18ZM12.0054 9.84911L13.264 11.1051C13.5787 11.4191 13.5787 11.9574 13.264 12.3162L12.4099 13.1685C11.5109 14.0656 9.12853 13.0788 7.01585 10.9705C4.90317 8.86227 3.9592 6.48489 4.81326 5.58776L5.66733 4.7355C5.98198 4.4215 6.52139 4.4215 6.881 4.7355L8.13962 5.99147C8.58912 6.44003 8.40932 7.20259 7.82496 7.38202C7.4204 7.51657 7.1507 7.96513 7.28555 8.36885C7.51031 9.31083 8.72398 10.4771 9.62299 10.7014C10.0275 10.7911 10.4771 10.5668 10.6119 10.1631C10.7917 9.57999 11.5559 9.40055 12.0054 9.84911Z" fill="#95DE93"/>
</svg>
