<svg width="18" height="18" viewBox="0 0 18 18" fill="none" xmlns="http://www.w3.org/2000/svg">
<path fill-rule="evenodd" clip-rule="evenodd" d="M9 18C13.9706 18 18 13.9706 18 9C18 4.02944 13.9706 0 9 0C4.02944 0 0 4.02944 0 9C0 13.9706 4.02944 18 9 18ZM5.88684 9.70444L3.55384 8.81547C3.31688 8.72481 3.31482 8.38328 3.5511 8.29025L13.1258 4.51931C13.3288 4.43917 13.5382 4.62072 13.494 4.83834L11.7758 13.2764C11.7353 13.4756 11.5065 13.566 11.345 13.4461L8.99944 11.7076C8.85698 11.602 8.66282 11.6076 8.5265 11.721L7.22605 12.8034C7.07508 12.9294 6.84764 12.8592 6.78986 12.6693L5.88684 9.70444ZM11.2039 6.36421L6.64433 9.23122C6.46957 9.34134 6.38729 9.5568 6.44375 9.7585L6.93674 11.527C6.97174 11.6523 7.1499 11.6394 7.16688 11.51L7.29506 10.5401C7.31923 10.3576 7.40455 10.1893 7.53682 10.0636L11.2998 6.49259C11.3701 6.42595 11.2858 6.31283 11.2039 6.36421Z" fill="#81B8EC"/>
</svg>
