<?xml version="1.0"?>
<svg xmlns="http://www.w3.org/2000/svg" xmlns:xlink="http://www.w3.org/1999/xlink" xmlns:svgjs="http://svgjs.com/svgjs" version="1.1" width="512" height="512" x="0" y="0" viewBox="0 0 511.875 511.875" style="enable-background:new 0 0 512 512" xml:space="preserve" class=""><g><g xmlns="http://www.w3.org/2000/svg"><path d="m198.139 69.623c-3.561 9.497-6.813 19.611-9.747 30.245 21.871 3.673 44.583 5.601 67.546 5.601s45.675-1.928 67.546-5.601c-2.935-10.634-6.186-20.748-9.747-30.245-16.35-43.596-37.957-69.623-57.799-69.623s-41.45 26.027-57.799 69.623z" fill="#98d7e9" data-original="#000000" style="" class=""/><path d="m314.988 6.888c9.952 13.795 18.992 31.277 26.838 52.201 4.074 10.864 7.765 22.461 11.068 34.659 26.914-6.733 51.97-16.243 73.91-28.185-31.301-28.121-69.545-48.653-111.816-58.675z" fill="#98d7e9" data-original="#000000" style="" class=""/><path d="m255.938 135.469c-25.566 0-50.576-2.128-74.563-6.23-6.982 34.036-11.057 72.008-11.878 111.699h172.882c-.821-39.691-4.895-77.663-11.878-111.699-23.987 4.101-48.997 6.23-74.563 6.23z" fill="#98d7e9" data-original="#000000" style="" class=""/><path d="m139.49 270.938h-139.039c3.397 58.474 26.506 111.74 62.776 153.234 26.258-15.405 56.304-27.331 88.799-35.411-7.401-36.071-11.703-76.126-12.536-117.823z" fill="#98d7e9" data-original="#000000" style="" class=""/><path d="m372.385 270.938c-.833 41.698-5.136 81.752-12.537 117.822 32.496 8.08 62.542 20.007 88.799 35.411 36.27-41.494 59.379-94.76 62.776-153.234h-139.038z" fill="#98d7e9" data-original="#000000" style="" class=""/><path d="m139.49 240.938c.833-41.698 5.136-81.752 12.537-117.822-32.496-8.08-62.542-20.007-88.799-35.411-36.27 41.494-59.379 94.76-62.776 153.234h139.038z" fill="#98d7e9" data-original="#000000" style="" class=""/><path d="m313.736 442.252c3.561-9.497 6.813-19.611 9.747-30.245-21.871-3.673-44.583-5.601-67.546-5.601s-45.675 1.928-67.546 5.601c2.935 10.634 6.186 20.748 9.747 30.245 16.349 43.595 37.956 69.623 57.798 69.623s41.451-26.027 57.8-69.623z" fill="#98d7e9" data-original="#000000" style="" class=""/><path d="m255.938 376.406c25.566 0 50.576 2.128 74.563 6.23 6.982-34.036 11.057-72.008 11.878-111.699h-172.882c.821 39.691 4.895 77.663 11.878 111.699 23.986-4.101 48.996-6.23 74.563-6.23z" fill="#98d7e9" data-original="#000000" style="" class=""/><path d="m359.849 123.115c7.401 36.07 11.703 76.125 12.537 117.822h139.039c-3.397-58.474-26.506-111.74-62.776-153.234-26.259 15.405-56.305 27.332-88.8 35.412z" fill="#98d7e9" data-original="#000000" style="" class=""/><path d="m352.894 418.127c-3.303 12.198-6.994 23.795-11.068 34.659-7.847 20.924-16.886 38.406-26.838 52.201 42.271-10.021 80.516-30.553 111.816-58.675-21.94-11.942-46.996-21.452-73.91-28.185z" fill="#98d7e9" data-original="#000000" style="" class=""/><path d="m158.981 93.748c3.303-12.198 6.994-23.795 11.068-34.659 7.847-20.924 16.886-38.406 26.838-52.201-42.271 10.022-80.515 30.554-111.816 58.676 21.94 11.941 46.996 21.451 73.91 28.184z" fill="#98d7e9" data-original="#000000" style="" class=""/><path d="m170.049 452.786c-4.074-10.864-7.765-22.461-11.068-34.659-26.914 6.733-51.97 16.243-73.91 28.185 31.301 28.122 69.545 48.654 111.816 58.675-9.951-13.795-18.991-31.277-26.838-52.201z" fill="#98d7e9" data-original="#000000" style="" class=""/></g></g></svg>
